# xmcd
#
# Track frame offsets: 
#        150
#        20389
#        39782
#        57294
#        84088
#        101244
#        124426
#        144129
#        161515
#        178368
#        193337
#
# Disc length: 2755 seconds
#
# Revision: 0
# Processed by: cddbd v1.5.2PL0 Copyright (c) Steve Scherf et al.
# Submitted via: ExactAudioCopy v0.95b3
#
DISCID=900ac10b
DTITLE=Robert Nighthawk II's Wampus Cats - Spectator Shoes
DYEAR=1900
DGENRE=Blues
TTITLE0=Spectator Shoes
TTITLE1=Forgive And Forget
TTITLE2=Whoopin' and Hollerin'
TTITLE3=Memphis Mike's Onion Rings
TTITLE4=Feed The Monkey
TTITLE5=Cotton's Sack
TTITLE6=Ode To Jimmy McGriff
TTITLE7=High Fidelity Blues
TTITLE8=You Sold Me Out Again
TTITLE9=Next Time You See Me
TTITLE10=Crumpy-ta-lump
EXTD=
EXTT0=
EXTT1=
EXTT2=
EXTT3=
EXTT4=
EXTT5=
EXTT6=
EXTT7=
EXTT8=
EXTT9=
EXTT10=
PLAYORDER=
